<svg xmlns="http://www.w3.org/2000/svg" viewBox="0 0 512 512" width="100%" height="100%">
  <defs>
    <linearGradient id="bg" x1="0%" y1="0%" x2="100%" y2="100%">
      <stop offset="0%" stop-color="#1e1e2f"/>
      <stop offset="100%" stop-color="#0f0f15"/>
    </linearGradient>
    <linearGradient id="primary" x1="0%" y1="0%" x2="0%" y2="100%">
      <stop offset="0%" stop-color="#00f2fe"/>
      <stop offset="100%" stop-color="#4facfe"/>
    </linearGradient>
    <filter id="glow" x="-20%" y="-20%" width="140%" height="140%">
      <feGaussianBlur stdDeviation="10" result="blur" />
      <feComposite in="SourceGraphic" in2="blur" operator="over" />
    </filter>
  </defs>
  <rect width="512" height="512" rx="128" fill="url(#bg)"/>
  <path d="M150 200h212v120c0 40-30 70-70 70h-72c-40 0-70-30-70-70V200z" fill="url(#primary)" filter="url(#glow)"/>
  <circle cx="200" cy="260" r="15" fill="#ffffff"/>
  <circle cx="312" cy="260" r="15" fill="#ffffff"/>
  <path d="M256 180v-40" stroke="#00f2fe" stroke-width="8" stroke-linecap="round"/>
  <path d="M236 120a30 30 0 0 1 40 0" fill="none" stroke="#00f2fe" stroke-width="8" stroke-linecap="round" filter="url(#glow)"/>
  <path d="M216 100a60 60 0 0 1 80 0" fill="none" stroke="#00f2fe" stroke-width="8" stroke-linecap="round" filter="url(#glow)"/>
</svg>
